<svg width="21" height="30" viewBox="0 0 21 30" fill="none" xmlns="http://www.w3.org/2000/svg">
<path d="M4.63914 15.4451V13.0828C4.63914 11.4485 6.09649 10.0544 7.77578 10.0544H12.7216C14.0983 10.0544 14.9516 8.8732 14.9516 7.49085V2.77593C14.9516 1.4339 13.9424 0.426089 12.5985 0.202261C11.7665 0.0631187 10.9242 -0.00447235 10.0806 0.000229365C9.2343 0.00421374 8.36055 0.0761669 7.64922 0.202261C5.55367 0.572104 5.10789 1.34695 5.10789 2.77593V4.66382H10.0298V5.36695H3.44172C2.00266 5.36695 0.742658 6.19429 0.348439 7.84007C-0.106014 9.72609 -0.12617 10.9343 0.348439 12.9037C0.700471 14.3695 1.54117 15.4451 2.98 15.4451H4.63914ZM7.4643 3.40476C6.95102 3.40476 6.53524 2.98406 6.53524 2.46421C6.53524 1.94179 6.95078 1.51757 7.4643 1.51757C7.97571 1.51757 8.39336 1.94203 8.39336 2.46421C8.39336 2.98406 7.97571 3.40476 7.4643 3.40476ZM20.1489 7.84007C19.7934 6.4071 19.1139 5.36695 17.6732 5.36695H15.6548V7.49085C15.6548 9.19546 14.3695 10.7576 12.7216 10.7576H7.77578C6.4211 10.7576 5.10789 11.7895 5.10789 13.1466V17.8615C5.10789 19.2033 6.3707 19.9927 7.67992 20.3773C9.24695 20.8383 10.6755 20.9215 12.5507 20.3773C13.7971 20.0163 14.9516 19.2902 14.9516 17.8615V16.1482H10.0298V15.4451H17.673C19.112 15.4451 19.6483 14.4101 20.1487 12.9037C20.6657 11.3527 20.6437 9.82992 20.1489 7.84007ZM13.033 17.2322C13.5463 17.2322 13.9623 17.6529 13.9623 18.1732C13.9623 18.6952 13.5466 19.1194 13.033 19.1194C12.5216 19.1194 12.1042 18.6949 12.1042 18.1732C12.1042 17.6529 12.5216 17.2322 13.033 17.2322ZM3.44641 25.7691C3.44641 24.8886 3.19531 24.4362 2.69313 24.4118C2.49361 24.4018 2.29426 24.4345 2.10836 24.5077C1.95711 24.5617 1.85469 24.6158 1.8011 24.6698V26.7717C2.1225 26.9733 2.40758 27.0668 2.65633 27.0523C3.18289 27.0179 3.44625 26.5902 3.44641 25.7691ZM4.06586 25.8059C4.06617 26.2532 3.96086 26.6245 3.74992 26.9198C3.51477 27.2542 3.18883 27.4262 2.77211 27.4357C2.45805 27.4455 2.13445 27.3473 1.80133 27.1409V29.0512L1.26274 28.8591V24.6185C1.35117 24.5104 1.46453 24.4169 1.60281 24.3382C1.9236 24.1512 2.31321 24.0552 2.77164 24.0504L2.77938 24.0579C3.19844 24.0527 3.52141 24.2247 3.74828 24.5737C3.95985 24.8937 4.06571 25.3044 4.06586 25.8059ZM7.3586 27.0595C7.3586 27.6595 7.29844 28.075 7.17813 28.3059C7.05719 28.5372 6.82711 28.7215 6.48789 28.8588C6.21274 28.9671 5.91524 29.0262 5.59539 29.0362L5.50633 28.6969C5.83117 28.6527 6.05992 28.6084 6.19258 28.5642C6.45352 28.4758 6.63305 28.3406 6.73117 28.1587C6.80992 28.0111 6.84922 27.7284 6.84906 27.3108V27.1704C6.48566 27.3365 6.09058 27.4219 5.69102 27.4207C5.42555 27.4209 5.19196 27.3374 4.99024 27.1704C4.76383 26.9882 4.65063 26.7571 4.65063 26.4771V24.2351L5.18946 24.0506V26.3077C5.18946 26.5486 5.26727 26.7342 5.42289 26.8645C5.65633 27.06 5.78008 27.0572 6.02711 27.0527C6.2743 27.0476 6.53852 26.9516 6.81977 26.7649V24.1319H7.3586V27.0595ZM9.46164 27.4062C9.40262 27.4109 9.34343 27.4134 9.28422 27.4137C8.97938 27.4137 8.74203 27.341 8.57219 27.1957C8.40281 27.0499 8.31813 26.8489 8.31813 26.5927V24.4706H7.94922V24.1317H8.31813V23.2317L8.85625 23.0402V24.1317H9.46164V24.4706H8.85625V26.5779C8.85625 26.7802 8.91047 26.9232 9.01891 27.0068C9.11219 27.0759 9.25977 27.1154 9.46164 27.1254V27.4062ZM12.7234 27.3619H12.1848V25.2823C12.1848 25.0707 12.1355 24.8887 12.037 24.7364C11.9234 24.5644 11.7652 24.4783 11.5626 24.4781C11.3155 24.4781 11.0066 24.6084 10.6359 24.8691V27.3619H10.0973V22.3912L10.6359 22.2213V24.4852C10.9799 24.2347 11.3562 24.1094 11.7646 24.1092C12.0499 24.1092 12.281 24.2052 12.4579 24.397C12.6352 24.5887 12.7238 24.8273 12.7237 25.1126V27.3619H12.7234ZM15.587 25.6844C15.587 25.3462 15.523 25.0666 15.3948 24.8456C15.2427 24.5762 15.0066 24.4342 14.6868 24.4195C14.0963 24.4539 13.8012 24.8767 13.8013 25.688C13.8012 26.0598 13.8629 26.3705 13.9865 26.6198C14.1445 26.9377 14.3814 27.0941 14.6973 27.0891C15.2905 27.0844 15.587 26.6162 15.587 25.6844ZM16.1772 25.688C16.1772 26.1695 16.0541 26.5704 15.808 26.8905C15.5376 27.249 15.1639 27.4284 14.687 27.4287C14.2145 27.4284 13.8455 27.249 13.5801 26.8905C13.3391 26.5704 13.2187 26.1695 13.2187 25.688C13.2187 25.2355 13.349 24.8543 13.6096 24.5444C13.8849 24.2154 14.2464 24.0508 14.6941 24.0506C15.1416 24.0508 15.5056 24.2154 15.7863 24.5444C16.0467 24.8543 16.177 25.2355 16.1772 25.688ZM19.2658 27.3619H18.727V25.1644C18.727 24.9234 18.6545 24.7352 18.5095 24.5998C18.3645 24.4646 18.1713 24.3995 17.9301 24.4045C17.6743 24.4095 17.4309 24.493 17.1998 24.6551V27.3619H16.6609V24.5885C16.9709 24.3627 17.2563 24.2154 17.5169 24.1465C17.763 24.0824 17.9795 24.0504 18.1663 24.0504C18.2941 24.0504 18.4146 24.0627 18.5277 24.0874C18.7393 24.1363 18.9114 24.2273 19.0441 24.3602C19.1919 24.5076 19.2658 24.6847 19.2658 24.8916V27.3619Z" fill="white"/>
</svg>
