<svg width="12" height="11" viewBox="0 0 12 11" fill="none" xmlns="http://www.w3.org/2000/svg">
<path d="M2.28015 0.22009C2.13798 0.0876104 1.94993 0.0154875 1.75563 0.0189157C1.56133 0.0223439 1.37594 0.101056 1.23853 0.238469C1.10112 0.375882 1.02241 0.561267 1.01898 0.755568C1.01555 0.949869 1.08767 1.13792 1.22015 1.28009L4.94015 5.00009L1.22015 8.72009C1.14647 8.78875 1.08736 8.87155 1.04637 8.96355C1.00538 9.05555 0.983339 9.15487 0.981562 9.25557C0.979785 9.35627 0.99831 9.4563 1.03603 9.54969C1.07375 9.64308 1.1299 9.72791 1.20112 9.79913C1.27233 9.87035 1.35717 9.92649 1.45056 9.96421C1.54394 10.0019 1.64397 10.0205 1.74468 10.0187C1.84538 10.0169 1.94469 9.99486 2.03669 9.95387C2.12869 9.91288 2.21149 9.85378 2.28015 9.78009L6.00015 6.06009L9.72015 9.78009C9.78882 9.85378 9.87162 9.91288 9.96362 9.95387C10.0556 9.99486 10.1549 10.0169 10.2556 10.0187C10.3563 10.0205 10.4564 10.0019 10.5498 9.96421C10.6431 9.92649 10.728 9.87035 10.7992 9.79913C10.8704 9.72791 10.9266 9.64308 10.9643 9.54969C11.002 9.4563 11.0205 9.35627 11.0187 9.25557C11.017 9.15487 10.9949 9.05555 10.9539 8.96355C10.9129 8.87155 10.8538 8.78875 10.7802 8.72009L7.06015 5.00009L10.7802 1.28009C10.9126 1.13792 10.9848 0.949869 10.9813 0.755568C10.9779 0.561267 10.8992 0.375882 10.7618 0.238469C10.6244 0.101056 10.439 0.0223439 10.2447 0.0189157C10.0504 0.0154875 9.86233 0.0876104 9.72015 0.22009L6.00015 3.94009L2.28015 0.22009Z" fill="black"/>
</svg>
