<svg width="28" height="6" viewBox="0 0 28 6" fill="none" xmlns="http://www.w3.org/2000/svg">
<path d="M2.17734 5.09108C1.63523 5.01796 1.07953 4.73155 0.689531 4.32397C0.406641 4.03007 0.2325 3.74811 0.0998438 3.37194C0.00750003 3.10921 0 3.0485 0 2.55632C0 2.06366 0.00750003 2.00225 0.0998438 1.73952C0.566719 0.406395 2.0107 -0.311261 3.33539 0.130067C4.13742 0.396551 4.78641 1.0978 5.00625 1.93452C5.08687 2.24132 5.08758 2.82983 5.00812 3.15866C4.7032 4.41491 3.45984 5.26311 2.17734 5.09108ZM3.02508 3.37194C3.36188 2.69811 3.6375 2.1314 3.6375 2.11218C3.6375 2.09015 3.47086 2.07632 3.21187 2.07632H2.78602V1.28999C2.78602 0.856864 2.7743 0.514442 2.76023 0.52827C2.70727 0.581474 1.48523 2.98288 1.49883 3.00843C1.50609 3.02319 1.70297 3.03491 1.93547 3.03491H2.35945V3.81585C2.35945 4.24522 2.37117 4.59679 2.38687 4.59679C2.40164 4.59679 2.68922 4.04577 3.02508 3.37194ZM10.7979 4.7735C10.612 4.72593 10.3427 4.58413 10.2495 4.48429C10.0132 4.23069 9.93727 3.66772 10.0957 3.34077C10.234 3.05319 10.5462 2.86194 11.0002 2.78413C11.2317 2.74382 11.6768 2.75577 11.9166 2.80897C12.0127 2.83007 12.0136 2.82725 12.0136 2.6578C12.0136 2.29522 11.8917 2.05452 11.6475 1.92725C11.5221 1.8621 11.4459 1.85132 11.1623 1.85577C10.9762 1.85952 10.7337 1.88413 10.6221 1.91061L10.4196 1.96007L10.3969 1.79624C10.3528 1.48405 10.3484 1.49694 10.5405 1.44468C10.6385 1.41819 10.9113 1.38796 11.1466 1.37694C11.4881 1.36147 11.6163 1.36968 11.783 1.41819C12.2032 1.54077 12.4448 1.80257 12.5353 2.23475C12.5658 2.38124 12.5803 2.80429 12.5813 3.5714L12.5822 4.69476L12.3066 4.73694C11.9423 4.79272 10.9664 4.81663 10.7979 4.7735ZM11.8488 4.32585L12.0136 4.30311V3.79499C12.0136 3.44249 12.0009 3.27936 11.9714 3.26202C11.9487 3.24749 11.7682 3.22827 11.5697 3.21983C11.1091 3.19874 10.8638 3.26296 10.7044 3.44413C10.6092 3.55218 10.5947 3.59718 10.5947 3.76569C10.5947 4.08327 10.6814 4.19765 11.002 4.29843C11.1577 4.34765 11.5889 4.36171 11.8488 4.32585ZM13.6341 4.73976C13.4995 4.7039 13.377 4.661 13.3612 4.6446C13.3348 4.61694 13.4063 4.22155 13.4447 4.18288C13.4538 4.17397 13.5628 4.20327 13.6863 4.24616C13.9884 4.35233 14.666 4.36522 14.8427 4.26819C14.9946 4.18569 15.0661 4.07413 15.0661 3.92296C15.0661 3.65929 14.8711 3.50272 14.1963 3.22827C13.5874 2.98007 13.3934 2.75765 13.3934 2.30905C13.3934 1.86679 13.6268 1.571 14.0827 1.43202C14.2924 1.36874 14.3876 1.36054 14.707 1.37694C15.1383 1.39897 15.457 1.4639 15.457 1.53069C15.457 1.57921 15.3827 1.94647 15.3701 1.961C15.3654 1.96663 15.2372 1.93827 15.0841 1.8989C14.7555 1.81546 14.5359 1.80913 14.3044 1.87968C14.0536 1.95468 13.9655 2.05264 13.9655 2.25772C13.9655 2.53968 14.0791 2.6285 14.8216 2.92874C15.3654 3.14764 15.5723 3.34827 15.6319 3.71343C15.7179 4.23983 15.4615 4.61343 14.9159 4.75874C14.6402 4.8321 13.938 4.82202 13.6341 4.73976ZM17.0536 4.75522C16.8293 4.68561 16.6491 4.52272 16.5328 4.28554L16.433 4.08233V0.498974L16.5923 0.47249C16.6843 0.457938 16.7761 0.442311 16.8677 0.425614L16.983 0.405692V1.43741H18.2255V1.8989H16.9798L16.9908 2.90202C16.9999 3.83249 17.0063 3.91476 17.074 4.04296C17.1143 4.12077 17.2005 4.21054 17.268 4.2471C17.4321 4.33499 17.8102 4.33499 18.0609 4.24616L18.2496 4.18054L18.3035 4.40741C18.3548 4.62069 18.3548 4.63616 18.2944 4.66827C18.0417 4.80374 17.363 4.85132 17.0536 4.75522ZM7.15125 2.53804V0.337958H9.81375V0.83413H7.75289L7.76297 1.51804L7.77211 2.201L8.68664 2.21015L9.60023 2.22022V2.71546H7.75477V4.73882H7.15148L7.15125 2.53804ZM18.5798 4.72054C18.5798 4.68022 19.2326 2.93343 19.4752 2.32546C19.6513 1.88757 19.8347 1.45266 20.0255 1.02093L20.3295 0.337958H20.6215C20.8695 0.337958 20.9173 0.347098 20.9337 0.399129C20.9437 0.434051 21.071 0.724911 21.2166 1.04741C21.5341 1.75429 21.9124 2.69811 22.3416 3.85429C22.5173 4.32772 22.6622 4.72147 22.6622 4.7278C22.6622 4.73507 22.5157 4.73718 22.3364 4.73155L22.0104 4.72054L21.8126 4.17116L21.6138 3.62085L20.6032 3.61077L19.5914 3.60163L19.392 4.16108L19.1932 4.72054L18.8864 4.73155C18.7181 4.73694 18.5798 4.73249 18.5798 4.72054ZM21.4198 3.09632C21.4198 2.98194 20.648 1.04741 20.6023 1.04741C20.5446 1.04741 19.7866 2.94702 19.7866 3.09093C19.7866 3.13311 19.9228 3.14108 20.6032 3.14108C21.2377 3.14108 21.4198 3.13077 21.4198 3.09632ZM23.3011 2.55983V0.380848L23.4166 0.35788C23.6655 0.309364 24.8613 0.292255 25.0837 0.335145C25.5919 0.430301 25.9791 0.637255 26.1687 0.91288C26.5038 1.40085 26.4487 2.22655 26.055 2.62124C25.7503 2.92593 25.2705 3.06702 24.4455 3.09725L23.9046 3.11647V4.73882H23.3011V2.55983ZM25.1515 2.50405C25.5755 2.37116 25.7557 2.12765 25.7557 1.68725C25.7557 1.08022 25.3317 0.800145 24.4144 0.799208C24.2562 0.799208 24.0757 0.808583 24.0152 0.821239L23.9046 0.84327V2.61936L24.4226 2.59358C24.7634 2.57718 25.0141 2.54601 25.1515 2.50405ZM27.2051 2.5378V0.337958H27.8084V4.73882H27.2051V2.5378Z" fill="white"/>
</svg>
