<svg width="116" height="123" viewBox="0 0 116 123" fill="none" xmlns="http://www.w3.org/2000/svg">
<path d="M41.6875 77.708L41.8805 77.802L42.2245 77.968C42.6632 78.178 43.1062 78.383 43.5535 78.583L43.8345 78.708C44.3472 78.9327 44.8642 79.1477 45.3855 79.353L45.7635 79.501C46.2468 79.6897 46.7345 79.8707 47.2265 80.044L47.4105 80.107C47.9495 80.295 48.4935 80.47 49.0425 80.641L49.4375 80.758C49.9955 80.927 50.5465 81.128 51.1225 81.235C87.6765 87.9 98.2935 59.268 98.2935 59.268C89.3755 70.886 73.5465 73.951 58.5485 70.539C57.9805 70.411 57.4285 70.233 56.8745 70.069L56.4575 69.943C55.9173 69.7773 55.3799 69.6026 54.8455 69.419L54.6245 69.339C54.1482 69.1704 53.6745 68.9947 53.2035 68.812L52.8055 68.656C52.2901 68.4532 51.7787 68.2405 51.2715 68.018L50.9645 67.882C50.5308 67.6864 50.0995 67.4857 49.6705 67.28L49.2955 67.1C48.9595 66.936 48.6265 66.761 48.2945 66.59L47.6265 66.24C47.2228 66.0229 46.8231 65.7985 46.4275 65.567L46.0225 65.341C45.4966 65.0298 44.9755 64.7104 44.4595 64.383L44.0385 64.103C43.6638 63.8627 43.2931 63.6164 42.9265 63.364L42.5685 63.112C42.2152 62.862 41.8648 62.6087 41.5175 62.352L41.0515 61.999C40.7323 61.7564 40.4163 61.5097 40.1035 61.259L39.6805 60.919C39.2824 60.5923 38.8883 60.2606 38.4985 59.924L38.3695 59.815C37.9485 59.4463 37.5338 59.0706 37.1255 58.688L36.7755 58.351C36.4728 58.0643 36.1752 57.773 35.8825 57.477L35.5325 57.127C35.1614 56.7468 34.7963 56.3608 34.4375 55.969L34.3835 55.911C34.0051 55.4968 33.6347 55.0754 33.2725 54.647L32.9815 54.301C32.7108 53.9757 32.4445 53.6463 32.1825 53.313L31.8895 52.949C31.5759 52.5438 31.2682 52.1341 30.9665 51.72C22.6405 40.362 19.6485 24.697 26.3035 11.832L20.4045 19.314C12.8455 30.177 13.7875 44.311 19.5605 55.855L19.9835 56.676L20.2545 57.196L20.4225 57.495L20.7235 58.034C20.9022 58.35 21.0855 58.6647 21.2735 58.978L21.5885 59.497C21.7965 59.8323 22.0098 60.1657 22.2285 60.497L22.5005 60.919C22.8012 61.3683 23.1098 61.8137 23.4265 62.255L23.4535 62.29L23.6095 62.501C23.8855 62.8797 24.1668 63.254 24.4535 63.624L24.7715 64.028C25.0268 64.3493 25.2868 64.669 25.5515 64.987L25.8495 65.342C26.2042 65.762 26.5665 66.176 26.9365 66.584L26.9585 66.607L27.0005 66.653C27.3605 67.047 27.7305 67.431 28.1045 67.817L28.4585 68.174C28.7485 68.4653 29.0425 68.7537 29.3405 69.039L29.7015 69.382C30.0975 69.756 30.5002 70.123 30.9095 70.483L30.9295 70.498L31.1395 70.678C31.5015 70.9913 31.8678 71.3007 32.2385 71.606L32.6935 71.968C32.9955 72.21 33.3008 72.4487 33.6095 72.684L34.0985 73.056C34.4385 73.306 34.7808 73.5517 35.1255 73.793L35.5005 74.059L35.6035 74.132C35.9315 74.358 36.2665 74.574 36.6015 74.791L37.0335 75.079C37.5468 75.4057 38.0675 75.7243 38.5955 76.035L39.0275 76.279C39.4142 76.5023 39.8048 76.721 40.1995 76.935L40.8475 77.271L41.6875 77.708ZM45.3805 40.913C46.1995 42.087 47.1065 43.483 48.1935 44.427C48.5875 44.861 48.9995 45.283 49.4195 45.7L49.7435 46.018C50.1515 46.4147 50.5688 46.8027 50.9955 47.182L51.0475 47.226L51.0595 47.239C51.5345 47.655 52.0245 48.055 52.5225 48.449L52.8555 48.709C53.3555 49.092 53.8645 49.468 54.3865 49.827L54.4315 49.86L55.1295 50.32L55.4615 50.54C55.8345 50.778 56.2115 51.012 56.5965 51.234L56.7565 51.327C57.0885 51.5183 57.4228 51.7053 57.7595 51.888L58.1155 52.075L58.8175 52.438L58.9235 52.486C59.4048 52.7233 59.8928 52.9507 60.3875 53.168L60.7105 53.301C61.1072 53.4703 61.5068 53.6327 61.9095 53.788L62.4235 53.976C62.7895 54.112 63.1555 54.236 63.5255 54.359L64.0245 54.519C64.5505 54.682 65.0695 54.888 65.6175 54.979C93.8395 59.656 100.355 37.925 100.355 37.925C94.4815 46.384 83.1075 50.419 70.9695 47.269C70.4331 47.1281 69.9003 46.974 69.3715 46.807L68.8905 46.652C68.5152 46.5307 68.1425 46.4023 67.7725 46.267L67.2685 46.079C66.8646 45.9239 66.4632 45.7622 66.0645 45.594L65.7405 45.456C65.2441 45.2402 64.7533 45.0117 64.2685 44.771L63.5295 44.395L63.1035 44.176C62.7895 44.0047 62.4782 43.829 62.1695 43.649L61.9465 43.522C61.565 43.2993 61.1876 43.0696 60.8145 42.833L60.4735 42.604L59.7415 42.12C59.224 41.761 58.7155 41.3892 58.2165 41.005L57.8735 40.734C52.5605 36.541 48.3495 30.807 46.3465 24.306C44.2485 17.566 44.7005 9.998 48.3355 3.857L43.8695 10.163C38.4035 18.028 38.7005 28.559 42.9645 36.878C43.6784 38.2756 44.4856 39.6237 45.3805 40.913ZM75.1275 31.182L75.8285 31.425L76.1375 31.523C76.4705 31.627 76.7995 31.749 77.1425 31.813C92.7255 34.824 96.9535 23.816 98.0785 22.196C94.3755 27.527 88.1535 28.806 80.5185 26.953C79.8932 26.7945 79.2764 26.6042 78.6705 26.383C77.9243 26.1176 77.1923 25.8139 76.4775 25.473C75.1208 24.8201 73.8325 24.0339 72.6315 23.126C65.7995 17.941 61.5555 8.054 66.0135 0L63.6015 3.324C60.3795 8.067 60.0625 13.957 62.2985 19.193C64.6565 24.753 69.4885 29.113 75.1275 31.182ZM60.0855 94.983H55.8595C55.7401 94.9882 55.6255 95.0316 55.5325 95.1066C55.4395 95.1816 55.3729 95.2844 55.3425 95.4L53.8425 102.34L52.3425 109.28C52.313 109.396 52.2468 109.499 52.1538 109.574C52.0608 109.649 51.946 109.692 51.8265 109.697H48.8355C45.8765 109.697 46.2185 107.65 46.8245 104.846L46.8425 104.761L46.9085 104.407L46.9205 104.341L47.0555 103.621L47.2005 102.85L47.3545 102.065L48.0365 98.733L48.7195 95.401C48.7325 95.3501 48.7334 95.2969 48.7222 95.2456C48.7109 95.1943 48.6878 95.1463 48.6546 95.1056C48.6214 95.0648 48.5792 95.0324 48.5312 95.0109C48.4833 94.9895 48.431 94.9796 48.3785 94.982H44.0415C43.922 94.9864 43.8072 95.0295 43.7145 95.1049C43.6217 95.1803 43.5561 95.2839 43.5275 95.4L42.5945 99.824L41.6625 104.249L41.6605 104.255L41.5745 104.667C40.5005 109.57 40.7845 114.247 46.6225 114.394L46.7925 114.397H55.9555C56.075 114.392 56.1898 114.349 56.2828 114.274C56.3758 114.199 56.442 114.096 56.4715 113.98L58.4475 104.691L60.4235 95.401C60.4725 95.171 60.3205 94.984 60.0855 94.983ZM14.8295 94.934H10.1895C10.0695 94.9383 9.95414 94.9811 9.86034 95.056C9.76653 95.1309 9.69928 95.234 9.66849 95.35L9.22849 97.292L8.78849 99.234C8.73749 99.463 8.88649 99.65 9.12149 99.65H13.7975C13.9171 99.645 14.0319 99.6018 14.1251 99.5267C14.2183 99.4517 14.285 99.3487 14.3155 99.233L14.7405 97.292L15.1655 95.351C15.2145 95.122 15.0645 94.934 14.8295 94.934ZM13.4835 100.978H8.80649C8.68653 100.982 8.57114 101.025 8.47733 101.1C8.38353 101.175 8.31628 101.278 8.28549 101.394L7.62849 104.304L6.97249 107.213L6.78949 108.047L6.15849 111.017L5.52849 113.988C5.47949 114.217 5.37849 114.587 5.30349 114.809C5.30349 114.809 4.42949 117.409 2.96049 117.379L2.77649 117.375L1.50549 117.352C1.38617 117.355 1.26999 117.396 1.17572 117.47C1.08146 117.543 1.01306 117.644 0.980489 117.759L0.495488 119.798L0.0114883 121.836C-0.0435117 122.064 0.104489 122.252 0.337489 122.256C1.17049 122.266 3.03649 122.287 4.16549 122.287C7.83449 122.287 9.76949 120.254 11.0085 114.404L12.4595 107.69L13.8205 101.393C13.8695 101.166 13.7175 100.978 13.4835 100.978ZM99.6005 99.404L99.4065 98.603L99.2155 97.783L99.1185 97.369C98.7385 95.892 97.6235 95.041 95.2015 95.041L91.4315 95.037L87.9595 95.032H84.0525C83.933 95.0361 83.8181 95.079 83.7251 95.1542C83.6322 95.2295 83.5663 95.333 83.5375 95.449L83.3645 96.265L83.1605 97.229L83.1035 97.5L81.3445 105.74L79.6745 113.562C79.6245 113.792 79.6085 114.074 79.6365 114.188C79.6645 114.303 80.1155 114.397 80.3495 114.397H83.8735C84.1085 114.397 84.4055 114.355 84.5335 114.303C84.6615 114.251 84.8505 113.79 84.8975 113.561L85.5235 110.462L86.1505 107.362L86.1515 107.357L86.2355 106.944L86.9955 103.384L87.6665 100.24C87.6961 100.124 87.7621 100.021 87.8549 99.9462C87.9477 99.8711 88.0622 99.8279 88.1815 99.823L99.2705 99.818C99.5055 99.82 99.6535 99.633 99.6005 99.404ZM113.875 92.164L113.021 92.167H109.472C109.342 92.1741 109.215 92.2093 109.1 92.2702C108.985 92.3312 108.884 92.4164 108.805 92.52L100.956 104.018C100.824 104.212 100.673 104.184 100.621 103.956L100.043 101.423C100.013 101.307 99.9452 101.204 99.8512 101.129C99.7572 101.054 99.6416 101.011 99.5215 101.007H94.4765C94.2415 101.007 94.1025 101.191 94.1665 101.416L96.4275 109.337C96.4915 109.563 96.4965 109.933 96.4385 110.161L95.4535 113.994C95.3945 114.222 95.5385 114.407 95.7735 114.407H100.76C100.881 114.402 100.997 114.36 101.093 114.286C101.188 114.212 101.258 114.11 101.292 113.994L102.278 110.161C102.356 109.891 102.479 109.635 102.641 109.406L115.383 92.495C115.525 92.307 115.448 92.154 115.214 92.156L113.875 92.164ZM73.7895 102.083V102.079C73.7722 102.2 73.7125 102.31 73.6211 102.391C73.5296 102.472 73.4125 102.518 73.2905 102.52H66.8935C66.6715 102.52 66.5595 102.37 66.5925 102.184L66.5985 102.169L66.5945 102.171L66.5975 102.15L66.6265 102.041C67.2375 100.417 68.4815 99.351 70.8205 99.351C73.4545 99.35 73.9685 100.636 73.7895 102.083ZM71.9125 94.699C63.7015 94.699 61.7555 99.683 60.6635 104.714C59.5725 109.842 59.6655 114.635 68.1635 114.635H69.1935L69.4495 114.634H69.5095L70.5295 114.631H70.5475C72.7915 114.622 75.0425 114.605 75.9535 114.598C76.0723 114.592 76.1862 114.549 76.278 114.473C76.3698 114.397 76.4345 114.294 76.4625 114.178L76.8065 112.497L76.8735 112.17L77.2835 110.164C77.2966 110.113 77.2975 110.06 77.2862 110.009C77.275 109.957 77.2518 109.91 77.2186 109.869C77.1854 109.828 77.1432 109.796 77.0952 109.775C77.0472 109.753 76.9949 109.743 76.9425 109.746H69.3035C66.2645 109.746 65.3625 108.939 65.6955 106.565H77.9065L77.9055 106.566L77.9135 106.565C78.0102 106.561 78.1037 106.529 78.1827 106.473C78.2617 106.418 78.3228 106.34 78.3585 106.25L78.3875 106.144L78.3865 106.145C80.1995 99.306 79.6795 94.7 71.9125 94.699ZM33.1025 102.057L32.9865 102.466L32.0645 105.735L31.1425 109.002C31.1043 109.117 31.0319 109.219 30.9349 109.292C30.838 109.365 30.721 109.408 30.5995 109.413H25.7195C22.0175 109.413 21.1155 106.517 22.0175 102.247C22.9185 97.879 24.6855 95.164 28.3295 94.889C33.3095 94.513 34.3055 98.015 33.1025 102.057ZM36.4505 109.162C36.4505 109.162 38.7515 103.574 39.2735 100.348C39.9865 96.029 37.8235 89.763 29.4695 89.763C21.1635 89.763 17.5555 95.744 16.1795 102.247C14.8035 108.797 16.6065 114.54 24.8655 114.493L31.3815 114.469L37.4705 114.447C37.5912 114.441 37.7071 114.398 37.8026 114.324C37.8981 114.25 37.9686 114.148 38.0045 114.033L39.0655 109.987C39.1245 109.759 38.9815 109.573 38.7465 109.571L37.7295 109.565L36.7125 109.559C36.5135 109.558 36.3995 109.428 36.4235 109.257L36.4505 109.162ZM77.5705 105.421C77.5706 105.458 77.5634 105.494 77.5494 105.528C77.5354 105.562 77.5148 105.593 77.4888 105.619C77.4629 105.645 77.432 105.666 77.3981 105.68C77.3642 105.694 77.3278 105.701 77.291 105.701C77.2542 105.702 77.2178 105.694 77.1838 105.68C77.1498 105.666 77.1189 105.646 77.0928 105.62C77.0668 105.594 77.0461 105.563 77.032 105.529C77.0179 105.495 77.0105 105.459 77.0105 105.422C77.0104 105.348 77.0397 105.276 77.0921 105.224C77.1446 105.171 77.2157 105.142 77.29 105.142C77.3642 105.141 77.4355 105.171 77.4881 105.223C77.5407 105.276 77.5704 105.347 77.5705 105.421Z" fill="#FCFCFC"/>
</svg>
