<svg width="78" height="57" viewBox="0 0 78 57" fill="none" xmlns="http://www.w3.org/2000/svg">
<path d="M3.75 16H26.2891C28.151 16 29.7201 16.0846 30.9961 16.2539C32.2852 16.4102 33.3464 16.651 34.1797 16.9766C35.013 17.3021 35.651 17.7057 36.0938 18.1875C36.5495 18.6693 36.8815 19.2357 37.0898 19.8867C37.2982 20.5378 37.4154 21.2669 37.4414 22.0742C37.4805 22.8815 37.5 23.7734 37.5 24.75C37.5 25.7656 37.474 26.7031 37.4219 27.5625C37.3828 28.4219 37.2331 29.2031 36.9727 29.9062C36.7253 30.5964 36.3216 31.2083 35.7617 31.7422C35.2148 32.263 34.4271 32.6992 33.3984 33.0508C32.3828 33.4023 31.0872 33.6693 29.5117 33.8516C27.9492 34.0339 26.0221 34.125 23.7305 34.125H7.5V46H3.75V16ZM7.5 31H23.7305C25.3971 31 26.7969 30.974 27.9297 30.9219C29.0755 30.8568 30.0195 30.7461 30.7617 30.5898C31.5039 30.4336 32.0768 30.2122 32.4805 29.9258C32.8841 29.6393 33.1771 29.2617 33.3594 28.793C33.5547 28.3242 33.6654 27.7643 33.6914 27.1133C33.7305 26.4492 33.75 25.6615 33.75 24.75C33.75 23.9036 33.7305 23.1745 33.6914 22.5625C33.6654 21.9505 33.5547 21.4362 33.3594 21.0195C33.1771 20.6029 32.8841 20.2708 32.4805 20.0234C32.0768 19.776 31.5039 19.5872 30.7617 19.457C30.0195 19.3138 29.0755 19.2227 27.9297 19.1836C26.7969 19.1445 25.3971 19.125 23.7305 19.125H7.5V31ZM61.4062 29.125C63.4635 29.125 65.2279 29.2096 66.6992 29.3789C68.1706 29.5482 69.4076 29.8021 70.4102 30.1406C71.4258 30.4661 72.2331 30.8763 72.832 31.3711C73.431 31.8659 73.8932 32.4323 74.2188 33.0703C74.5443 33.6953 74.7526 34.3984 74.8438 35.1797C74.9479 35.9609 75 36.8073 75 37.7188C75 38.6302 74.9154 39.4896 74.7461 40.2969C74.5898 41.0911 74.3034 41.8203 73.8867 42.4844C73.4701 43.1484 72.9036 43.7409 72.1875 44.2617C71.4714 44.7826 70.5599 45.2253 69.4531 45.5898C68.3464 45.9544 67.0117 46.2279 65.4492 46.4102C63.8997 46.6055 62.0833 46.7031 60 46.7031H55C53.125 46.7031 51.4844 46.6315 50.0781 46.4883C48.6719 46.3451 47.4609 46.1302 46.4453 45.8438C45.4297 45.5443 44.5898 45.1732 43.9258 44.7305C43.2617 44.2747 42.7279 43.7474 42.3242 43.1484C41.9336 42.5365 41.6602 41.8464 41.5039 41.0781C41.3477 40.2969 41.2695 39.4375 41.2695 38.5H45.0195C45.0195 39.6719 45.1888 40.5898 45.5273 41.2539C45.8659 41.918 46.4258 42.4193 47.207 42.7578C47.9883 43.0833 49.0104 43.2917 50.2734 43.3828C51.5495 43.4609 53.125 43.5 55 43.5H60C62.1875 43.5 64.0039 43.3958 65.4492 43.1875C66.8945 42.9792 68.0469 42.6471 68.9062 42.1914C69.7656 41.7357 70.3711 41.1432 70.7227 40.4141C71.0742 39.6719 71.25 38.7734 71.25 37.7188C71.25 36.6641 71.1263 35.7852 70.8789 35.082C70.6445 34.3789 70.1693 33.819 69.4531 33.4023C68.75 32.9857 67.7539 32.6927 66.4648 32.5234C65.1758 32.3411 63.4896 32.25 61.4062 32.25H56.25C53.9583 32.25 51.9922 32.1654 50.3516 31.9961C48.724 31.8268 47.3568 31.5859 46.25 31.2734C45.1432 30.9479 44.2578 30.5508 43.5938 30.082C42.9297 29.6003 42.4219 29.0534 42.0703 28.4414C41.7318 27.8294 41.5104 27.1523 41.4062 26.4102C41.3021 25.6549 41.25 24.8411 41.25 23.9688C41.25 23.0573 41.3281 22.2109 41.4844 21.4297C41.6536 20.6484 41.9596 19.9453 42.4023 19.3203C42.8451 18.6823 43.4505 18.1159 44.2188 17.6211C44.987 17.1263 45.9701 16.7161 47.168 16.3906C48.3789 16.0521 49.8307 15.7982 51.5234 15.6289C53.2161 15.4596 55.2083 15.375 57.5 15.375H61.25C63.125 15.375 64.7656 15.4466 66.1719 15.5898C67.5781 15.7201 68.7891 15.9349 69.8047 16.2344C70.8203 16.5208 71.6602 16.8854 72.3242 17.3281C73.0013 17.7578 73.5352 18.2786 73.9258 18.8906C74.3294 19.4896 74.6094 20.1732 74.7656 20.9414C74.9219 21.7096 75 22.5625 75 23.5H71.25C71.25 22.3281 71.0807 21.4102 70.7422 20.7461C70.4036 20.082 69.8438 19.5872 69.0625 19.2617C68.2812 18.9232 67.2526 18.7148 65.9766 18.6367C64.7005 18.5456 63.125 18.5 61.25 18.5H57.5C55 18.5 52.9427 18.5911 51.3281 18.7734C49.7135 18.9427 48.4375 19.2357 47.5 19.6523C46.5625 20.069 45.9115 20.6289 45.5469 21.332C45.1823 22.0352 45 22.9141 45 23.9688C45 24.6198 45.0456 25.1992 45.1367 25.707C45.2279 26.2148 45.4102 26.6641 45.6836 27.0547C45.9701 27.4323 46.3672 27.7513 46.875 28.0117C47.3828 28.2721 48.0534 28.487 48.8867 28.6562C49.7201 28.8255 50.7357 28.9492 51.9336 29.0273C53.1445 29.0924 54.5833 29.125 56.25 29.125H61.4062Z" fill="#EDEDED"/>
</svg>
