<svg width="512" height="135" viewBox="0 0 512 135" fill="none" xmlns="http://www.w3.org/2000/svg">
<g clip-path="url(#clip0_630_42)">
<path d="M39.689 13.8101C34.489 7.64008 30.01 1.37408 29.096 0.0720753C29.0742 0.0492955 29.0481 0.0311635 29.0191 0.0187753C28.9902 0.00638712 28.959 0 28.9275 0C28.896 0 28.8648 0.00638712 28.8358 0.0187753C28.8069 0.0311635 28.7807 0.0492955 28.759 0.0720753C27.844 1.37408 23.366 7.64008 18.166 13.8101C-26.469 70.7361 25.196 109.152 25.196 109.152L25.629 109.442C26.014 115.37 26.977 123.902 26.977 123.902H30.829C30.829 123.902 31.792 115.418 32.177 109.442L32.611 109.104C32.659 109.152 84.323 70.7361 39.689 13.8101ZM28.903 108.285C28.903 108.285 26.592 106.308 25.966 105.297V105.2L28.759 43.2131C28.759 43.0201 29.048 43.0201 29.048 43.2131L31.84 105.2V105.297C31.214 106.308 28.903 108.285 28.903 108.285Z" fill="white"/>
<path d="M125.589 95.636L104.059 43.053L104.012 42.908H87.2623V46.442H89.9643C90.7853 46.442 91.5573 46.782 92.1373 47.362C92.7163 47.943 93.0063 48.718 93.0063 49.542L92.5233 102.462C92.5233 104.109 91.1723 105.464 89.5303 105.513L86.7793 105.561V109.047H103.095V105.561L101.405 105.513C99.7643 105.464 98.4123 104.109 98.4123 102.463V52.59L121.872 109.046C122.21 109.869 122.982 110.402 123.852 110.402C124.72 110.402 125.492 109.869 125.83 109.046L148.76 53.849L149.098 102.462C149.098 104.156 147.746 105.512 146.056 105.56H144.318V109.046H163.434V105.56H160.827C159.187 105.56 157.834 104.156 157.787 102.51L157.641 49.588C157.641 48.7841 157.952 48.0115 158.511 47.4334C159.069 46.8553 159.831 46.517 160.634 46.49L163.434 46.441V42.907H147.118L125.589 95.636ZM275.702 104.64C275.17 104.107 274.879 103.38 274.879 102.506V76.51C274.879 71.563 273.428 67.682 270.524 64.918C267.668 62.153 263.7 60.747 258.764 60.747C251.842 60.747 246.374 63.56 242.55 69.089C242.502 69.186 242.357 69.235 242.212 69.235C242.067 69.235 241.97 69.137 241.97 68.992L240.179 62.056H237.178L229.483 66.47V68.895H231.467C232.387 68.895 233.161 69.137 233.694 69.623C234.226 70.108 234.516 70.835 234.516 71.853V102.458C234.516 103.331 234.226 104.059 233.694 104.593C233.161 105.126 232.435 105.417 231.564 105.417H229.628V108.957H247.341V105.417H245.406C244.534 105.417 243.808 105.126 243.276 104.593C242.744 104.059 242.453 103.331 242.453 102.458V82.184C242.453 79.614 243.034 77.043 244.099 74.52C245.212 72.047 246.857 69.961 249.035 68.36C251.213 66.759 253.827 65.984 256.827 65.984C260.215 65.984 262.78 67.051 264.377 69.185C265.974 71.319 266.797 74.084 266.797 77.382V102.409C266.797 103.282 266.507 104.009 265.974 104.543C265.441 105.077 264.716 105.367 263.844 105.367H261.909V108.908H279.622V105.368H277.687C276.961 105.465 276.283 105.174 275.702 104.64ZM437.535 46.867C432.639 44.26 427.167 42.907 421.262 42.907H398.222V46.432H400.477C401.341 46.432 402.109 46.77 402.877 47.542C403.597 48.267 403.981 49.088 403.981 49.957V101.907C403.981 102.777 403.598 103.597 402.877 104.322C402.157 105.046 401.341 105.432 400.477 105.432H398.221V108.957H421.262C427.167 108.957 432.639 107.605 437.535 104.997C442.431 102.389 446.415 98.527 449.295 93.603C452.176 88.679 453.664 82.74 453.664 75.98C453.664 69.221 452.176 63.33 449.296 58.358C446.368 53.337 442.43 49.522 437.535 46.867ZM444.401 75.884C444.401 82.064 443.297 87.278 441.136 91.479C438.976 95.679 436.096 98.817 432.544 100.846C428.992 102.873 425.055 103.887 420.831 103.887H416.175C415.311 103.887 414.543 103.549 413.775 102.777C413.055 102.052 412.671 101.232 412.671 100.363V51.357C412.671 50.487 413.007 49.716 413.775 48.943C414.495 48.219 415.311 47.833 416.175 47.833H420.831C425.055 47.833 428.991 48.846 432.544 50.874C436.097 52.902 438.976 56.04 441.136 60.241C443.296 64.489 444.401 69.752 444.401 75.884ZM508.129 79.409C505.998 76.946 501.885 74.87 497.049 73.759C503.727 70.428 507.159 65.745 507.159 59.709C507.159 56.427 506.292 53.481 504.547 50.971C502.807 48.461 500.337 46.432 497.194 45.032C494.046 43.632 490.368 42.908 486.207 42.908H460.126V46.432H462.206C463.077 46.432 463.852 46.77 464.626 47.542C465.352 48.267 465.739 49.088 465.739 49.957V101.907C465.739 102.777 465.352 103.597 464.626 104.322C463.9 105.046 463.077 105.432 462.206 105.432H459.932V108.957H488.242C492.547 108.957 496.562 108.233 500.193 106.784C503.823 105.336 506.726 103.211 508.808 100.411C510.935 97.611 512 94.182 512 90.223C511.952 85.975 510.693 82.353 508.129 79.409ZM475.659 102.825C474.933 102.101 474.546 101.28 474.546 100.411V77.09H487.999C492.739 77.09 496.368 78.2966 498.885 80.71C501.401 83.1246 502.66 86.2633 502.66 90.126C502.66 92.443 502.076 94.713 501.016 96.789C499.902 98.913 498.253 100.603 496.031 101.907C493.851 103.21 491.142 103.887 487.999 103.887H478.076C477.206 103.887 476.431 103.548 475.657 102.824M474.593 72.117V51.405C474.593 50.536 474.931 49.764 475.705 48.991C476.431 48.267 477.254 47.881 478.125 47.881H484.513C489.107 47.881 492.497 49.04 494.628 51.261C496.754 53.53 497.819 56.427 497.819 59.999C497.819 63.669 496.802 66.614 494.82 68.835C492.834 71.007 489.835 72.118 485.868 72.118L474.593 72.117ZM208.269 63.825C204.571 61.805 200.441 60.745 195.975 60.745C191.627 60.745 187.552 61.704 183.971 63.665L183.682 63.825C179.984 65.846 177.055 68.781 174.894 72.486C172.734 76.191 171.629 80.522 171.629 85.333C171.629 90.145 172.733 94.476 174.894 98.181C177.055 101.886 179.984 104.821 183.682 106.841C187.38 108.861 191.51 109.921 195.975 109.921C200.324 109.921 204.399 108.963 207.979 107.003L208.269 106.842C211.966 104.821 214.896 101.886 217.057 98.181C219.217 94.476 220.322 90.145 220.322 85.333C220.322 80.522 219.217 76.191 217.057 72.486C214.897 68.781 211.967 65.845 208.269 63.825ZM211.822 85.334C211.822 91.253 210.382 96.064 207.5 99.529C204.667 102.993 200.778 104.773 195.975 104.773C191.259 104.773 187.423 103.056 184.603 99.713L184.451 99.529C181.569 96.064 180.128 91.253 180.128 85.334C180.128 79.524 181.518 74.78 184.295 71.33L184.451 71.14C187.283 67.676 191.174 65.895 195.975 65.895C200.778 65.895 204.667 67.675 207.5 71.14C210.382 74.605 211.822 79.416 211.822 85.334ZM378.453 63.826C374.755 61.806 370.626 60.746 366.16 60.746C361.812 60.746 357.736 61.705 354.156 63.666L353.866 63.826C350.169 65.847 347.24 68.782 345.079 72.487C342.918 76.192 341.813 80.523 341.813 85.334C341.813 90.146 342.918 94.477 345.079 98.182C347.24 101.887 350.169 104.822 353.867 106.842C357.564 108.863 361.694 109.922 366.16 109.922C370.508 109.922 374.584 108.964 378.164 107.004L378.454 106.843C382.151 104.822 385.08 101.887 387.241 98.182C389.402 94.477 390.506 90.146 390.506 85.334C390.506 80.523 389.402 76.192 387.241 72.487C385.08 68.782 382.103 65.846 378.453 63.826ZM382.007 85.335C382.007 91.254 380.566 96.065 377.685 99.53C374.851 102.994 370.962 104.774 366.16 104.774C361.443 104.774 357.607 103.057 354.788 99.714L354.635 99.53C351.754 96.065 350.313 91.254 350.313 85.335C350.313 79.477 351.702 74.779 354.479 71.331L354.635 71.141C357.468 67.677 361.358 65.896 366.16 65.896C370.962 65.896 374.851 67.676 377.685 71.141C380.519 74.606 382.007 79.417 382.007 85.335ZM309.821 60.748C305.952 60.748 302.421 61.5696 299.229 63.213C296.037 64.856 293.522 67.08 291.733 69.932C289.954 72.6993 289.013 75.9227 289.025 79.213C289.025 82.21 289.702 84.965 291.105 87.431C292.458 89.799 294.296 91.781 296.618 93.424L289.702 102.802C288.832 103.962 288.735 105.509 289.363 106.766C290.04 108.071 291.298 108.844 292.749 108.844H294.732C292.878 110.095 291.379 111.568 290.321 113.304L290.185 113.533C288.928 115.611 288.299 117.787 288.299 120.01C288.299 124.093 290.072 127.477 293.571 130.023L293.764 130.161C297.344 132.723 302.373 134.028 308.708 134.028C313.109 134.028 317.317 133.303 321.138 131.901C324.896 130.54 327.969 128.539 330.27 125.945L330.47 125.715C332.84 123.007 334.05 119.72 334.05 115.95C334.05 111.986 332.599 109.182 329.214 106.476C326.312 104.204 321.766 102.996 316.107 102.996H296.763C296.735 102.993 296.708 102.982 296.686 102.964L296.666 102.947L296.657 102.927C296.647 102.896 296.631 102.837 296.666 102.802L301.696 96.035C302.887 96.5898 304.136 97.0111 305.42 97.291C306.58 97.533 307.886 97.63 309.337 97.63C313.399 97.63 317.075 96.808 320.267 95.165C323.459 93.521 326.022 91.298 327.86 88.445C329.697 85.642 330.616 82.5 330.616 79.165C330.616 75.588 328.876 69.062 324.136 65.727C324.136 65.697 324.153 65.686 324.167 65.681L324.184 65.678L334.582 66.838V62.053H317.945C315.334 61.231 312.625 60.748 309.821 60.748ZM315.624 91.008C313.786 91.974 311.804 92.506 309.821 92.506C306.581 92.506 303.727 91.346 301.309 89.074C298.891 86.802 297.682 83.467 297.682 79.213C297.682 74.959 298.891 71.623 301.309 69.352C303.727 67.081 306.58 65.92 309.821 65.92C311.767 65.92 313.625 66.364 315.394 67.294L315.624 67.418C317.462 68.385 318.961 69.884 320.17 71.866C321.33 73.848 321.96 76.313 321.96 79.213C321.96 82.162 321.379 84.627 320.17 86.56C319.01 88.542 317.462 90.041 315.624 91.008ZM302.518 108.795H315.624C319.251 108.795 321.573 109.52 323.12 111.067C324.667 112.614 325.441 114.692 325.441 117.109C325.441 120.638 324.039 123.539 321.234 125.713C318.429 127.889 314.657 129 310.014 129C305.951 129 302.566 128.082 300.099 126.342C297.632 124.602 296.376 121.942 296.376 118.559C296.376 116.432 296.956 114.45 298.117 112.71C299.277 110.97 300.68 109.713 302.517 108.795" fill="white"/>
</g>
<defs>
<clipPath id="clip0_630_42">
<rect width="512" height="135" fill="white"/>
</clipPath>
</defs>
</svg>
