<svg width="24" height="24" viewBox="0 0 24 24" fill="none" xmlns="http://www.w3.org/2000/svg">
<path d="M11.9996 4.85999C8.82628 4.85999 6.84294 6.44665 6.04961 9.61999C7.23961 8.03332 8.62794 7.43832 10.2146 7.83499C11.1196 8.06099 11.7666 8.71798 12.4826 9.44498C13.6506 10.63 14.9996 12 17.9496 12C21.1229 12 23.1063 10.4133 23.8996 7.23998C22.7096 8.82665 21.3213 9.42165 19.7346 9.02498C18.8286 8.79898 18.1826 8.14199 17.4646 7.41499C16.2996 6.22999 14.9496 4.85999 11.9996 4.85999ZM6.04961 12C2.87628 12 0.892943 13.5867 0.0996094 16.76C1.28961 15.1733 2.67794 14.5783 4.26461 14.975C5.16961 15.201 5.81661 15.858 6.53361 16.585C7.69961 17.77 9.04961 19.14 11.9996 19.14C15.1729 19.14 17.1563 17.5533 17.9496 14.38C16.7596 15.9667 15.3713 16.5617 13.7846 16.165C12.8786 15.939 12.2326 15.282 11.5146 14.555C10.3496 13.37 8.99961 12 6.04961 12Z" fill="white"/>
</svg>
